<svg xmlns:mydata="http://www.w3.org/2000/svg" mydata:contrastcolor="ffcfb3" mydata:template="InvertedHex1" mydata:presentation="2.5" mydata:layouttype="undefined" mydata:specialfontid="undefined" mydata:id1="158" mydata:id2="767" mydata:companyname="Kalculando" mydata:companytagline="pra você" version="1.1" xmlns="http://www.w3.org/2000/svg" xmlns:xlink="http://www.w3.org/1999/xlink" viewBox="0 0 550 470" style="background-color: rgb(255, 106, 19); background-image: radial-gradient(circle closest-side, rgba(255, 255, 255, 0.07) 0%, rgba(255, 255, 255, 0) 100%);"><g fill="#ffffff" fill-rule="none" stroke="none" stroke-width="1" stroke-linecap="butt" stroke-linejoin="miter" stroke-miterlimit="10" stroke-dasharray="" stroke-dashoffset="0" font-family="none" font-weight="none" font-size="none" text-anchor="none" style="mix-blend-mode: normal; stroke: rgb(255, 255, 255); stroke-width: 1; fill-opacity: 1; stroke-opacity: 0; transition: fill-opacity 1200ms linear, stroke-opacity 1200ms;"><g data-paper-data="{&quot;isGlobalGroup&quot;:true,&quot;bounds&quot;:{&quot;x&quot;:119.76509323091705,&quot;y&quot;:114.99999999999999,&quot;width&quot;:310.46981353816585,&quot;height&quot;:240}}" style="stroke: rgb(255, 255, 255); stroke-width: 1; fill-opacity: 1; stroke-opacity: 0; transition: fill-opacity 1200ms linear, stroke-opacity 1200ms;"><g data-paper-data="{&quot;isSecondaryText&quot;:true}" fill-rule="nonzero" style="stroke: rgb(255, 255, 255); stroke-width: 1; fill-opacity: 1; stroke-opacity: 0; transition: fill-opacity 1200ms linear, stroke-opacity 1200ms;"><path d="M211.55614,354.58688h1.02689v-2.65576h3.47019c2.07739,0 2.92724,-1.36919 2.92724,-2.7856c0,-1.49903 -1.0505,-2.82101 -2.84461,-2.82101h-4.57971zM215.78175,347.24519c1.3928,0 2.17182,0.63738 2.17182,1.92395c0,0.88525 -0.50754,1.85313 -2.13641,1.85313h-3.23412v-3.77708z" data-paper-data="{&quot;glyphName&quot;:&quot;P&quot;,&quot;glyphIndex&quot;:0,&quot;firstGlyphOfWord&quot;:true,&quot;word&quot;:1}" style="stroke: rgb(255, 255, 255); stroke-width: 1; fill-opacity: 1; stroke-opacity: 0; stroke-dasharray: 46, 86; stroke-dashoffset: 0px; transition: fill-opacity 1200ms linear, stroke-opacity 1200ms;"></path><path d="M228.95422,354.58688v-2.59674h3.54101l1.4046,2.59674h1.18034l-1.54624,-2.76199c1.18034,-0.42492 1.82952,-1.4164 1.82952,-2.71478c0,-1.67608 -1.20394,-2.7856 -2.82101,-2.7856h-4.59151v8.26236zM228.95422,347.23338h3.10429c1.21575,0 2.26625,0.44853 2.26625,1.88854c0,1.93575 -1.81772,1.93575 -2.23084,1.93575h-3.1397z" data-paper-data="{&quot;glyphName&quot;:&quot;R&quot;,&quot;glyphIndex&quot;:1,&quot;word&quot;:1}" style="stroke: rgb(255, 255, 255); stroke-width: 1; fill-opacity: 1; stroke-opacity: 0; stroke-dasharray: 53, 93; stroke-dashoffset: 0px; transition: fill-opacity 1200ms linear, stroke-opacity 1200ms;"></path><path d="M244.28739,354.58688h1.18034l3.69445,-6.62169l3.70626,6.62169h1.18034l-4.8866,-8.73449zM249.16218,354.58688c0.3659,0 0.67279,-0.30689 0.67279,-0.67279c0,-0.37771 -0.30689,-0.67279 -0.67279,-0.67279c-0.3659,0 -0.67279,0.29508 -0.67279,0.67279c0,0.3659 0.30689,0.67279 0.67279,0.67279z" data-paper-data="{&quot;glyphName&quot;:&quot;A&quot;,&quot;glyphIndex&quot;:2,&quot;lastGlyphOfWord&quot;:true,&quot;word&quot;:1}" style="stroke: rgb(255, 255, 255); stroke-width: 1; fill-opacity: 1; stroke-opacity: 0; stroke-dasharray: 42, 82; stroke-dashoffset: 0px; transition: fill-opacity 1200ms linear, stroke-opacity 1200ms;"></path><path d="M276.11882,346.32452l4.83938,8.67548l4.85118,-8.67548h-1.18034l-3.67085,6.56267l-3.65904,-6.56267z" data-paper-data="{&quot;glyphName&quot;:&quot;V&quot;,&quot;glyphIndex&quot;:3,&quot;firstGlyphOfWord&quot;:true,&quot;word&quot;:2}" style="stroke: rgb(255, 255, 255); stroke-width: 1; fill-opacity: 1; stroke-opacity: 0; stroke-dasharray: 38, 78; stroke-dashoffset: 0px; transition: fill-opacity 1200ms linear, stroke-opacity 1200ms;"></path><path d="M298.36981,354.56328c2.53772,0 4.60331,-1.85313 4.60331,-4.13118c0,-2.27805 -2.06559,-4.13118 -4.60331,-4.13118c-2.53772,0 -4.60331,1.85313 -4.60331,4.13118c0,2.27805 2.06559,4.13118 4.60331,4.13118zM294.81699,350.4439c0,-1.90034 1.62887,-3.17511 3.55281,-3.17511c1.88854,0 3.54101,1.27476 3.54101,3.1515c0,1.81772 -1.68788,3.1397 -3.54101,3.1397c-1.87674,0 -3.55281,-1.28657 -3.55281,-3.11609z" data-paper-data="{&quot;glyphName&quot;:&quot;O&quot;,&quot;glyphIndex&quot;:4,&quot;word&quot;:2}" style="stroke: rgb(255, 255, 255); stroke-width: 1; fill-opacity: 1; stroke-opacity: 0; stroke-dasharray: 49, 89; stroke-dashoffset: 0px; transition: fill-opacity 1200ms linear, stroke-opacity 1200ms;"></path><path d="M316.73913,354.74033c1.80592,0 3.36396,-0.99148 4.10757,-2.40789l-0.97968,-0.31869c-0.60197,0.90886 -1.53444,1.71149 -3.12789,1.71149c-2.01838,0 -3.55281,-1.54624 -3.55281,-3.25773c0,-1.90034 1.66428,-3.26953 3.55281,-3.26953c1.45181,0 2.47871,0.62558 3.17511,1.7351l0.93247,-0.31869c-0.74361,-1.42821 -2.30166,-2.41969 -4.10757,-2.41969c-2.52592,0 -4.57971,1.91215 -4.57971,4.27282c0,2.36067 2.05379,4.27282 4.57971,4.27282z" data-paper-data="{&quot;glyphName&quot;:&quot;C&quot;,&quot;glyphIndex&quot;:5,&quot;word&quot;:2}" style="stroke: rgb(255, 255, 255); stroke-width: 1; fill-opacity: 1; stroke-opacity: 0; stroke-dasharray: 45, 85; stroke-dashoffset: 0px; transition: fill-opacity 1200ms linear, stroke-opacity 1200ms;"></path><path d="M338.44386,354.58688v-0.92066h-6.19677v-2.93904h5.42955v-0.87345h-5.42955v-2.59674h6.19677v-0.93247h-7.21186v8.26236zM334.11202,345.75796l0.74361,-0.80263l0.74361,0.80263h0.87345l-1.18034,-1.38099h-0.87345l-1.16853,1.38099z" data-paper-data="{&quot;glyphName&quot;:&quot;Ê&quot;,&quot;glyphIndex&quot;:6,&quot;lastGlyphOfWord&quot;:true,&quot;word&quot;:2}" style="stroke: rgb(255, 255, 255); stroke-width: 1; fill-opacity: 1; stroke-opacity: 0; stroke-dasharray: 63, 103; stroke-dashoffset: 0px; transition: fill-opacity 1200ms linear, stroke-opacity 1200ms;"></path></g><g data-paper-data="{&quot;isPrimaryText&quot;:true}" fill-rule="nonzero" style="stroke: rgb(255, 255, 255); stroke-width: 1; fill-opacity: 1; stroke-opacity: 0; transition: fill-opacity 1200ms linear, stroke-opacity 1200ms;"><path d="M146.00971,333.50065c0,0.69238 -0.22255,1.32707 -0.66766,1.90405c-0.4451,0.57699 -1.01385,0.94791 -1.70623,1.11276c-0.72535,0.16485 -1.42598,0.07418 -2.10188,-0.27201c-0.6759,-0.34619 -1.16221,-0.86548 -1.45895,-1.55786c-0.13188,-0.32971 -0.19782,-0.65941 -0.19782,-0.98912c0,-0.32971 -0.03297,-0.6759 -0.09891,-1.03857c-0.09891,-0.89021 -0.29674,-1.73096 -0.59347,-2.52225c-0.62644,-1.48368 -1.50016,-2.72008 -2.62116,-3.7092c-1.38477,-1.25288 -3.01681,-2.02769 -4.89614,-2.32443c-0.46159,-0.09891 -0.91493,-0.14837 -1.36004,-0.14837c-0.4451,0 -0.89845,0 -1.36004,0h-2.76953c-0.13188,0 -0.19782,0.03297 -0.19782,0.09891v0.59347v5.73689v2.4728c0,0.32971 -0.00824,0.65117 -0.02473,0.96439c-0.01649,0.31322 -0.10715,0.6182 -0.27201,0.91493c-0.29674,0.65941 -0.77481,1.16221 -1.43422,1.50841c-0.65941,0.34619 -1.3518,0.43686 -2.07715,0.27201c-0.69238,-0.16485 -1.26113,-0.52753 -1.70623,-1.08803c-0.4451,-0.5605 -0.66766,-1.20343 -0.66766,-1.92878v-3.7092v-9.14935v-9.1988c0,-0.62644 -0.00824,-1.24464 -0.02473,-1.8546c-0.01649,-0.60996 -0.00824,-1.22816 0.02473,-1.8546c0,-0.72535 0.24728,-1.36828 0.74184,-1.92878c0.49456,-0.5605 1.08803,-0.90669 1.78041,-1.03857c0.85724,-0.13188 1.64853,0.07418 2.37388,0.6182c0.72535,0.54402 1.13749,1.24464 1.2364,2.10188c0.06594,0.32971 0.09067,0.65941 0.07418,0.98912c-0.01649,0.32971 -0.02473,0.65941 -0.02473,0.98912v3.01681v4.10484v0.89021c0,0.16485 0,0.25552 0,0.27201c0,0.01649 0.08243,0.02473 0.24728,0.02473h2.81899c0.03297,0 0.12364,0.00824 0.27201,0.02473c0.14837,0.01649 0.23904,0.00824 0.27201,-0.02473l0.4451,-0.74184c0.23079,-0.39565 0.46159,-0.79129 0.69238,-1.18694c0.23079,-0.39565 0.46159,-0.79129 0.69238,-1.18694c0.75832,-1.28585 1.51665,-2.57995 2.27497,-3.88229c0.75832,-1.30234 1.51665,-2.59644 2.27497,-3.88229c0.16485,-0.29674 0.34619,-0.58523 0.54402,-0.86548c0.19782,-0.28025 0.42862,-0.51929 0.69238,-0.71711c0.65941,-0.46159 1.40125,-0.64293 2.22552,-0.54402c0.82427,0.09891 1.50016,0.47807 2.02769,1.13749c0.39565,0.49456 0.60996,1.0633 0.64293,1.70623c0.03297,0.64293 -0.1154,1.24464 -0.4451,1.80514c-0.13188,0.19782 -0.24728,0.40389 -0.34619,0.6182c-0.09891,0.21431 -0.21431,0.42038 -0.34619,0.6182l-4.89614,8.3086c1.45071,0.59347 2.78602,1.38477 4.00593,2.37388c1.21991,0.98912 2.26673,2.12661 3.14045,3.41246c0.87372,1.28585 1.55786,2.67062 2.05242,4.1543c0.49456,1.48368 0.74184,3.01681 0.74184,4.5994z" data-paper-data="{&quot;glyphName&quot;:&quot;k&quot;,&quot;glyphIndex&quot;:0,&quot;firstGlyphOfWord&quot;:true,&quot;word&quot;:1}" style="stroke: rgb(255, 255, 255); stroke-width: 1; fill-opacity: 1; stroke-opacity: 0; stroke-dasharray: 150, 190; stroke-dashoffset: 0px; transition: fill-opacity 1200ms linear, stroke-opacity 1200ms;"></path><path d="M166.28664,304.71729c2.20903,0 4.27794,0.42038 6.20672,1.26113c1.92878,0.84075 3.61028,1.97824 5.04451,3.41246c1.43422,1.43422 2.57171,3.12397 3.41246,5.06923c0.84075,1.94527 1.26113,4.00593 1.26113,6.18199v12.85854c0,0.85724 -0.29674,1.58259 -0.89021,2.17606c-0.59347,0.59347 -1.31882,0.89021 -2.17606,0.89021c-0.85724,0 -1.59083,-0.29674 -2.20079,-0.89021c-0.60996,-0.59347 -0.91493,-1.31882 -0.91493,-2.17606v-5.93471h-9.74282v-0.04946c-0.09891,0.03297 -0.28025,0.04946 -0.54402,0.04946c-1.08803,0 -2.12661,0.16485 -3.11572,0.49456c-0.98912,0.32971 -1.88757,0.79129 -2.69535,1.38477c-0.80778,0.59347 -1.50841,1.30234 -2.10188,2.12661c-0.59347,0.82427 -1.03857,1.73096 -1.33531,2.72008c-0.03297,0.03297 -0.04946,0.06594 -0.04946,0.09891c0,0.03297 -0.01649,0.06594 -0.04946,0.09891c-0.19782,0.62644 -0.5605,1.12924 -1.08803,1.50841c-0.52753,0.37916 -1.13749,0.56874 -1.82987,0.56874c-0.85724,0 -1.58259,-0.29674 -2.17606,-0.89021c-0.59347,-0.59347 -0.89021,-1.31882 -0.89021,-2.17606v-0.4451v-12.41344c0,-1.94527 0.32971,-3.77514 0.98912,-5.48961c0.79129,-2.11012 1.97824,-3.98945 3.56083,-5.63798c1.48368,-1.48368 3.18991,-2.65414 5.11869,-3.51137c1.92878,-0.85724 3.99769,-1.28585 6.20672,-1.28585zM176.02946,321.38394v-0.74184c0,-1.71447 -0.41213,-3.29706 -1.2364,-4.74777c0,-0.03297 -0.00824,-0.0577 -0.02473,-0.07418c-0.01649,-0.01649 -0.02473,-0.04121 -0.02473,-0.07418c-0.13188,-0.19782 -0.26376,-0.39565 -0.39565,-0.59347c-0.13188,-0.19782 -0.26376,-0.37916 -0.39565,-0.54402c-0.89021,-1.15397 -1.99472,-2.06066 -3.31355,-2.72008c-1.31882,-0.65941 -2.76953,-0.98912 -4.35212,-0.98912c-1.58259,0 -3.04154,0.35443 -4.37685,1.0633c-1.33531,0.70887 -2.44807,1.64029 -3.33828,2.79426c-0.62644,0.82427 -1.11276,1.73096 -1.45895,2.72008c-0.34619,0.98912 -0.51929,2.04418 -0.51929,3.16518v3.65974c1.28585,-0.92318 2.70359,-1.64029 4.25321,-2.15133c1.54962,-0.51104 3.18167,-0.76657 4.89614,-0.76657h0.54402z" data-paper-data="{&quot;glyphName&quot;:&quot;a&quot;,&quot;glyphIndex&quot;:1,&quot;word&quot;:1}" style="stroke: rgb(255, 255, 255); stroke-width: 1; fill-opacity: 1; stroke-opacity: 0; stroke-dasharray: 178, 218; stroke-dashoffset: 0px; transition: fill-opacity 1200ms linear, stroke-opacity 1200ms;"></path><path d="M205.85139,333.50065c0,0.82427 -0.28849,1.52489 -0.86548,2.10188c-0.57699,0.57699 -1.27761,0.89845 -2.10188,0.96439h-0.09891h-0.04946h-0.29674c-2.14309,-0.06594 -4.1543,-0.52753 -6.03362,-1.38477c-1.87933,-0.85724 -3.51137,-2.00297 -4.89614,-3.43719c-1.38477,-1.43422 -2.48104,-3.09924 -3.28882,-4.99505c-0.80778,-1.89581 -1.21167,-3.93175 -1.21167,-6.10781v-12.85854c0,-0.85724 0.29674,-1.58259 0.89021,-2.17606c0.59347,-0.59347 1.31882,-0.89021 2.17606,-0.89021c0.85724,0 1.59083,0.29674 2.20079,0.89021c0.60996,0.59347 0.91493,1.31882 0.91493,2.17606l-0.04946,12.85854c0,1.31882 0.24728,2.55522 0.74184,3.7092c0.49456,1.15397 1.16221,2.16782 2.00297,3.04154c0.84075,0.87372 1.82987,1.58259 2.96736,2.12661c1.13749,0.54402 2.34916,0.83251 3.63501,0.86548h0.24728c0.85724,0 1.59083,0.30498 2.20079,0.91493c0.60996,0.60996 0.91493,1.34355 0.91493,2.20079z" data-paper-data="{&quot;glyphName&quot;:&quot;l&quot;,&quot;glyphIndex&quot;:2,&quot;word&quot;:1}" style="stroke: rgb(255, 255, 255); stroke-width: 1; fill-opacity: 1; stroke-opacity: 0; stroke-dasharray: 86, 126; stroke-dashoffset: 0px; transition: fill-opacity 1200ms linear, stroke-opacity 1200ms;"></path><path d="M228.15602,330.43438c0.85724,0 1.58259,0.30498 2.17606,0.91493c0.59347,0.60996 0.89021,1.34355 0.89021,2.20079c0,0.85724 -0.29674,1.58259 -0.89021,2.17606c-0.59347,0.59347 -1.31882,0.89021 -2.17606,0.89021h-3.65974c-2.17606,0 -4.22848,-0.42038 -6.15726,-1.26113c-1.92878,-0.84075 -3.61028,-1.97824 -5.04451,-3.41246c-1.43422,-1.43422 -2.57171,-3.11572 -3.41246,-5.04451c-0.84075,-1.92878 -1.26113,-3.99769 -1.26113,-6.20672c0,-2.17606 0.42038,-4.22848 1.26113,-6.15726c0.84075,-1.92878 1.97824,-3.61028 3.41246,-5.04451c1.43422,-1.43422 3.11572,-2.57171 5.04451,-3.41246c1.92878,-0.84075 3.9812,-1.26113 6.15726,-1.26113h3.65974c0.85724,0 1.58259,0.29674 2.17606,0.89021c0.59347,0.59347 0.89021,1.31882 0.89021,2.17606c0,0.85724 -0.29674,1.59083 -0.89021,2.20079c-0.59347,0.60996 -1.31882,0.91493 -2.17606,0.91493h-3.65974c-1.3518,0 -2.61292,0.25552 -3.78338,0.76657c-1.17046,0.51104 -2.20079,1.20343 -3.091,2.07715c-0.89021,0.87372 -1.59083,1.90405 -2.10188,3.091c-0.51104,1.18694 -0.76657,2.43983 -0.76657,3.75865c0,1.3518 0.25552,2.62116 0.76657,3.80811c0.51104,1.18694 1.21167,2.21727 2.10188,3.091c0.89021,0.87372 1.92054,1.5661 3.091,2.07715c1.17046,0.51104 2.43158,0.76657 3.78338,0.76657z" data-paper-data="{&quot;glyphName&quot;:&quot;c&quot;,&quot;glyphIndex&quot;:3,&quot;word&quot;:1}" style="stroke: rgb(255, 255, 255); stroke-width: 1; fill-opacity: 1; stroke-opacity: 0; stroke-dasharray: 115, 155; stroke-dashoffset: 0px; transition: fill-opacity 1200ms linear, stroke-opacity 1200ms;"></path><path d="M263.46755,304.71729c0.85724,0 1.58259,0.30498 2.17606,0.91493c0.59347,0.60996 0.89021,1.34355 0.89021,2.20079v12.85854c0,2.17606 -0.42038,4.22848 -1.26113,6.15726c-0.84075,1.92878 -1.97824,3.61028 -3.41246,5.04451c-1.43422,1.43422 -3.11572,2.57171 -5.04451,3.41246c-1.92878,0.84075 -3.9812,1.26113 -6.15726,1.26113c-2.20903,0 -4.27794,-0.42038 -6.20672,-1.26113c-1.92878,-0.84075 -3.61028,-1.97824 -5.04451,-3.41246c-1.43422,-1.43422 -2.57171,-3.11572 -3.41246,-5.04451c-0.84075,-1.92878 -1.26113,-3.9812 -1.26113,-6.15726v-12.85854c0,-0.85724 0.30498,-1.59083 0.91493,-2.20079c0.60996,-0.60996 1.34355,-0.91493 2.20079,-0.91493c0.85724,0 1.58259,0.30498 2.17606,0.91493c0.59347,0.60996 0.89021,1.34355 0.89021,2.20079v12.85854c0,1.3518 0.25552,2.61292 0.76657,3.78338c0.51104,1.17046 1.20343,2.20079 2.07715,3.091c0.87372,0.89021 1.90405,1.59083 3.091,2.10188c1.18694,0.51104 2.45631,0.76657 3.80811,0.76657c1.31882,0 2.57171,-0.25552 3.75865,-0.76657c1.18694,-0.51104 2.22552,-1.21167 3.11572,-2.10188c0.89021,-0.89021 1.59083,-1.92054 2.10188,-3.091c0.51104,-1.17046 0.76657,-2.43158 0.76657,-3.78338h-0.04946v-12.85854c0,-0.85724 0.30498,-1.59083 0.91493,-2.20079c0.60996,-0.60996 1.34355,-0.91493 2.20079,-0.91493z" data-paper-data="{&quot;glyphName&quot;:&quot;u&quot;,&quot;glyphIndex&quot;:4,&quot;word&quot;:1}" style="stroke: rgb(255, 255, 255); stroke-width: 1; fill-opacity: 1; stroke-opacity: 0; stroke-dasharray: 152, 192; stroke-dashoffset: 0px; transition: fill-opacity 1200ms linear, stroke-opacity 1200ms;"></path><path d="M288.93736,333.50065c0,0.82427 -0.28849,1.52489 -0.86548,2.10188c-0.57699,0.57699 -1.27761,0.89845 -2.10188,0.96439h-0.09891h-0.04946h-0.29674c-2.14309,-0.06594 -4.1543,-0.52753 -6.03362,-1.38477c-1.87933,-0.85724 -3.51137,-2.00297 -4.89614,-3.43719c-1.38477,-1.43422 -2.48104,-3.09924 -3.28882,-4.99505c-0.80778,-1.89581 -1.21167,-3.93175 -1.21167,-6.10781v-12.85854c0,-0.85724 0.29674,-1.58259 0.89021,-2.17606c0.59347,-0.59347 1.31882,-0.89021 2.17606,-0.89021c0.85724,0 1.59083,0.29674 2.20079,0.89021c0.60996,0.59347 0.91493,1.31882 0.91493,2.17606l-0.04946,12.85854c0,1.31882 0.24728,2.55522 0.74184,3.7092c0.49456,1.15397 1.16221,2.16782 2.00297,3.04154c0.84075,0.87372 1.82987,1.58259 2.96736,2.12661c1.13749,0.54402 2.34916,0.83251 3.63501,0.86548h0.24728c0.85724,0 1.59083,0.30498 2.20079,0.91493c0.60996,0.60996 0.91493,1.34355 0.91493,2.20079z" data-paper-data="{&quot;glyphName&quot;:&quot;l&quot;,&quot;glyphIndex&quot;:5,&quot;word&quot;:1}" style="stroke: rgb(255, 255, 255); stroke-width: 1; fill-opacity: 1; stroke-opacity: 0; stroke-dasharray: 86, 126; stroke-dashoffset: 0px; transition: fill-opacity 1200ms linear, stroke-opacity 1200ms;"></path><path d="M306.59313,304.71729c2.20903,0 4.27794,0.42038 6.20672,1.26113c1.92878,0.84075 3.61028,1.97824 5.04451,3.41246c1.43422,1.43422 2.57171,3.12397 3.41246,5.06923c0.84075,1.94527 1.26113,4.00593 1.26113,6.18199v12.85854c0,0.85724 -0.29674,1.58259 -0.89021,2.17606c-0.59347,0.59347 -1.31882,0.89021 -2.17606,0.89021c-0.85724,0 -1.59083,-0.29674 -2.20079,-0.89021c-0.60996,-0.59347 -0.91493,-1.31882 -0.91493,-2.17606v-5.93471h-9.74282v-0.04946c-0.09891,0.03297 -0.28025,0.04946 -0.54402,0.04946c-1.08803,0 -2.12661,0.16485 -3.11572,0.49456c-0.98912,0.32971 -1.88757,0.79129 -2.69535,1.38477c-0.80778,0.59347 -1.50841,1.30234 -2.10188,2.12661c-0.59347,0.82427 -1.03857,1.73096 -1.33531,2.72008c-0.03297,0.03297 -0.04946,0.06594 -0.04946,0.09891c0,0.03297 -0.01649,0.06594 -0.04946,0.09891c-0.19782,0.62644 -0.5605,1.12924 -1.08803,1.50841c-0.52753,0.37916 -1.13749,0.56874 -1.82987,0.56874c-0.85724,0 -1.58259,-0.29674 -2.17606,-0.89021c-0.59347,-0.59347 -0.89021,-1.31882 -0.89021,-2.17606v-0.4451v-12.41344c0,-1.94527 0.32971,-3.77514 0.98912,-5.48961c0.79129,-2.11012 1.97824,-3.98945 3.56083,-5.63798c1.48368,-1.48368 3.18991,-2.65414 5.11869,-3.51137c1.92878,-0.85724 3.99769,-1.28585 6.20672,-1.28585zM316.33595,321.38394v-0.74184c0,-1.71447 -0.41213,-3.29706 -1.2364,-4.74777c0,-0.03297 -0.00824,-0.0577 -0.02473,-0.07418c-0.01649,-0.01649 -0.02473,-0.04121 -0.02473,-0.07418c-0.13188,-0.19782 -0.26376,-0.39565 -0.39565,-0.59347c-0.13188,-0.19782 -0.26376,-0.37916 -0.39565,-0.54402c-0.89021,-1.15397 -1.99472,-2.06066 -3.31355,-2.72008c-1.31882,-0.65941 -2.76953,-0.98912 -4.35212,-0.98912c-1.58259,0 -3.04154,0.35443 -4.37685,1.0633c-1.33531,0.70887 -2.44807,1.64029 -3.33828,2.79426c-0.62644,0.82427 -1.11276,1.73096 -1.45895,2.72008c-0.34619,0.98912 -0.51929,2.04418 -0.51929,3.16518v3.65974c1.28585,-0.92318 2.70359,-1.64029 4.25321,-2.15133c1.54962,-0.51104 3.18167,-0.76657 4.89614,-0.76657h0.54402z" data-paper-data="{&quot;glyphName&quot;:&quot;a&quot;,&quot;glyphIndex&quot;:6,&quot;word&quot;:1}" style="stroke: rgb(255, 255, 255); stroke-width: 1; fill-opacity: 1; stroke-opacity: 0; stroke-dasharray: 178, 218; stroke-dashoffset: 0px; transition: fill-opacity 1200ms linear, stroke-opacity 1200ms;"></path><path d="M354.2192,304.71729c0.85724,0 1.59083,0.30498 2.20079,0.91493c0.60996,0.60996 0.91493,1.34355 0.91493,2.20079v11.27595v0.79129v13.60038l-0.04946,0.04946v0.19782v0.14837v0.14837c-0.03297,0.03297 -0.04946,0.08243 -0.04946,0.14837c0,0.03297 -0.00824,0.0577 -0.02473,0.07418c-0.01649,0.01649 -0.02473,0.04121 -0.02473,0.07418c0,0.03297 -0.01649,0.06594 -0.04946,0.09891c0,0.09891 -0.01649,0.16485 -0.04946,0.19782c0,0.03297 -0.01649,0.06594 -0.04946,0.09891c0,0.06594 -0.03297,0.13188 -0.09891,0.19782v0.04946c-0.03297,0.03297 -0.0577,0.06594 -0.07418,0.09891c-0.01649,0.03297 -0.04121,0.06594 -0.07418,0.09891v0.04946c-0.03297,0.03297 -0.0577,0.06594 -0.07418,0.09891c-0.01649,0.03297 -0.0577,0.06594 -0.12364,0.09891v0.04946l-0.19782,0.19782c-0.06594,0.06594 -0.09891,0.09891 -0.09891,0.09891l-0.09891,0.09891c-0.06594,0.03297 -0.14837,0.09891 -0.24728,0.19782c-0.06594,0.03297 -0.10715,0.0577 -0.12364,0.07418c-0.01649,0.01649 -0.0577,0.04121 -0.12364,0.07418h-0.04946c-0.06594,0.06594 -0.13188,0.09891 -0.19782,0.09891c-0.03297,0 -0.04946,0.01649 -0.04946,0.04946c-0.06594,0 -0.10715,0.00824 -0.12364,0.02473c-0.01649,0.01649 -0.0577,0.02473 -0.12364,0.02473c0,0 -0.03297,0.01649 -0.09891,0.04946c-0.03297,0 -0.0577,0.00824 -0.07418,0.02473c-0.01649,0.01649 -0.0577,0.02473 -0.12364,0.02473h-0.09891c-0.03297,0 -0.0577,0.00824 -0.07418,0.02473c-0.01649,0.01649 -0.0577,0.02473 -0.12364,0.02473h-0.09891h-0.19782h-0.04946h-0.04946h-0.19782h-0.14837c-0.03297,0 -0.0577,-0.00824 -0.07418,-0.02473c-0.01649,-0.01649 -0.04121,-0.02473 -0.07418,-0.02473h-0.14837c-0.03297,-0.03297 -0.08243,-0.04946 -0.14837,-0.04946c-0.03297,0 -0.0577,-0.00824 -0.07418,-0.02473c-0.01649,-0.01649 -0.04121,-0.02473 -0.07418,-0.02473c-0.03297,0 -0.0577,-0.00824 -0.07418,-0.02473c-0.01649,-0.01649 -0.04121,-0.02473 -0.07418,-0.02473c-0.03297,0 -0.04946,-0.00824 -0.04946,-0.02473c0,-0.01649 -0.01649,-0.02473 -0.04946,-0.02473c0,0 -0.06594,-0.03297 -0.19782,-0.09891c0,0 -0.01649,-0.01649 -0.04946,-0.04946c-0.06594,0 -0.13188,-0.03297 -0.19782,-0.09891c0,0 -0.01649,-0.01649 -0.04946,-0.04946c-0.13188,-0.06594 -0.19782,-0.09891 -0.19782,-0.09891c0,-0.03297 -0.00824,-0.04946 -0.02473,-0.04946c-0.01649,0 -0.02473,-0.01649 -0.02473,-0.04946c-0.03297,0 -0.08243,-0.03297 -0.14837,-0.09891l-0.09891,-0.09891l-0.04946,-0.04946l-17.45795,-19.63401v3.16518v0.79129v13.60038c0,0.85724 -0.29674,1.58259 -0.89021,2.17606c-0.59347,0.59347 -1.31882,0.89021 -2.17606,0.89021c-0.85724,0 -1.59083,-0.29674 -2.20079,-0.89021c-0.60996,-0.59347 -0.91493,-1.31882 -0.91493,-2.17606v-13.60038v-0.79129v-11.27595v-0.09891v-0.19782l0.04946,-0.04946c0.06594,-0.75832 0.39565,-1.41774 0.98912,-1.97824c0.62644,-0.5605 1.36828,-0.82427 2.22552,-0.79129c0.85724,0.03297 1.5661,0.37916 2.12661,1.03857l17.45795,19.58455v-5.44015v-0.79129v-11.27595c0,-0.85724 0.29674,-1.59083 0.89021,-2.20079c0.59347,-0.60996 1.31882,-0.91493 2.17606,-0.91493z" data-paper-data="{&quot;glyphName&quot;:&quot;n&quot;,&quot;glyphIndex&quot;:7,&quot;word&quot;:1}" style="stroke: rgb(255, 255, 255); stroke-width: 1; fill-opacity: 1; stroke-opacity: 0; stroke-dasharray: 174, 214; stroke-dashoffset: 0px; transition: fill-opacity 1200ms linear, stroke-opacity 1200ms;"></path><path d="M393.0421,320.93884c0,0.26376 -0.00824,0.51929 -0.02473,0.76657c-0.01649,0.24728 -0.04121,0.5028 -0.07418,0.76657c-0.16485,1.3518 -0.49456,2.65414 -0.98912,3.90702c-0.49456,1.25288 -1.12924,2.42334 -1.90405,3.51137c-0.77481,1.08803 -1.6815,2.06891 -2.72008,2.94263c-1.03857,0.87372 -2.16782,1.60732 -3.38773,2.20079c-2.53874,1.18694 -5.20936,1.6815 -8.01186,1.48368c-2.8025,-0.19782 -5.37421,-1.08803 -7.71513,-2.67062c-2.242,-1.51665 -3.9812,-3.48664 -5.2176,-5.90998c-1.2364,-2.42334 -1.82163,-4.98681 -1.75569,-7.6904c0.06594,-1.6815 0.37916,-3.31355 0.93966,-4.89614c0.5605,-1.58259 1.3518,-3.04978 2.37388,-4.40158c1.28585,-1.6815 2.85196,-3.04154 4.69831,-4.08011c1.84635,-1.03857 3.80811,-1.68974 5.88526,-1.95351c2.07715,-0.26376 4.13781,-0.1154 6.18199,0.4451c2.04418,0.5605 3.89053,1.48368 5.53906,2.76953h0.04946v-8.16023c0,-0.85724 0.29674,-1.58259 0.89021,-2.17606c0.59347,-0.59347 1.31882,-0.89021 2.17606,-0.89021c0.85724,0 1.58259,0.29674 2.17606,0.89021c0.59347,0.59347 0.89021,1.31882 0.89021,2.17606v20.27693zM384.48623,327.12083c1.15397,-1.3518 1.90405,-2.89317 2.25025,-4.62413c0.34619,-1.73096 0.22255,-3.43719 -0.37092,-5.11869c-0.46159,-1.28585 -1.16221,-2.42334 -2.10188,-3.41246c-0.93966,-0.98912 -2.01945,-1.74744 -3.23936,-2.27497c-1.25288,-0.5605 -2.56347,-0.84075 -3.93175,-0.84075c-1.36828,0 -2.66238,0.28025 -3.88229,0.84075c-0.52753,0.26376 -1.03033,0.54402 -1.50841,0.84075c-0.47807,0.29674 -0.93142,0.64293 -1.36004,1.03857c-0.85724,0.85724 -1.54962,1.83811 -2.07715,2.94263c-0.52753,1.10452 -0.82427,2.28322 -0.89021,3.5361c-0.06594,1.08803 0.04121,2.16782 0.32146,3.23936c0.28025,1.07155 0.75008,2.05242 1.40949,2.94263c0.65941,0.95615 1.45895,1.77217 2.39861,2.44807c0.93966,0.6759 1.95351,1.16221 3.04154,1.45895c1.05506,0.26376 2.14309,0.36268 3.26409,0.29674c1.121,-0.06594 2.19255,-0.32971 3.21464,-0.79129c-0.26376,0.13188 -0.52753,0.25552 -0.79129,0.37092c-0.26376,0.1154 -0.54402,0.22255 -0.84075,0.32146c0.62644,-0.23079 1.26937,-0.49456 1.92878,-0.79129c1.25288,-0.62644 2.30794,-1.43422 3.16518,-2.42334z" data-paper-data="{&quot;glyphName&quot;:&quot;d&quot;,&quot;glyphIndex&quot;:8,&quot;word&quot;:1}" style="stroke: rgb(255, 255, 255); stroke-width: 1; fill-opacity: 1; stroke-opacity: 0; stroke-dasharray: 190, 230; stroke-dashoffset: 0px; transition: fill-opacity 1200ms linear, stroke-opacity 1200ms;"></path><path d="M411.73645,305.01403c2.53874,-0.42862 5.03626,-0.24728 7.49257,0.54402c2.45631,0.79129 4.59116,2.11012 6.40454,3.95647c1.48368,1.48368 2.62941,3.20639 3.43719,5.16815c0.80778,1.96175 1.19519,3.99769 1.16221,6.10781c0,1.6815 -0.27201,3.32179 -0.81602,4.92087c-0.54402,1.59908 -1.31058,3.07451 -2.2997,4.42631c-1.61556,2.17606 -3.65974,3.83283 -6.13254,4.97032c-2.4728,1.13749 -5.04451,1.6238 -7.71513,1.45895c-1.38477,-0.09891 -2.73656,-0.37916 -4.05539,-0.84075c-1.31882,-0.46159 -2.54698,-1.07155 -3.68447,-1.82987c-1.13749,-0.75832 -2.16782,-1.64853 -3.091,-2.67062c-0.92318,-1.02209 -1.69799,-2.15958 -2.32443,-3.41246c-0.59347,-1.21991 -1.03033,-2.48928 -1.31058,-3.80811c-0.28025,-1.31882 -0.3874,-2.64589 -0.32146,-3.9812c0.06594,-1.33531 0.28849,-2.65414 0.66766,-3.95647c0.37916,-1.30234 0.93142,-2.5305 1.65677,-3.68447c0.23079,-0.42862 0.51104,-0.85724 0.84075,-1.28585h0.04946c1.21991,-1.64853 2.70359,-2.98384 4.45103,-4.00593c1.74744,-1.02209 3.61028,-1.71447 5.58852,-2.07715zM422.41893,326.23062c0.69238,-1.02209 1.1787,-2.12661 1.45895,-3.31355c0.28025,-1.18694 0.33795,-2.39037 0.1731,-3.61028c-0.19782,-1.21991 -0.5605,-2.29146 -1.08803,-3.21464c-0.65941,-1.18694 -1.51665,-2.20903 -2.57171,-3.06627c-1.05506,-0.85724 -2.242,-1.45071 -3.56083,-1.78041c-1.28585,-0.36268 -2.60468,-0.4451 -3.95647,-0.24728c-1.3518,0.19782 -2.60468,0.65941 -3.75865,1.38477c-1.48368,0.95615 -2.63765,2.22552 -3.46192,3.80811c-0.82427,1.58259 -1.18694,3.26409 -1.08803,5.04451c0.06594,1.38477 0.41213,2.67062 1.03857,3.85756c0.16485,0.29674 0.32146,0.60171 0.46983,0.91493c0.14837,0.31322 0.32146,0.6182 0.51929,0.91493c-0.29674,-0.49456 -0.57699,-1.0056 -0.84075,-1.53313c0.52753,0.95615 1.20343,1.80514 2.02769,2.54698c0.82427,0.74184 1.74744,1.34355 2.76953,1.80514c1.05506,0.46159 2.15958,0.71711 3.31355,0.76657c1.15397,0.04946 2.27497,-0.10715 3.363,-0.46983c1.05506,-0.32971 2.02769,-0.82427 2.9179,-1.48368c0.89021,-0.65941 1.64853,-1.43422 2.27497,-2.32443z" data-paper-data="{&quot;glyphName&quot;:&quot;o&quot;,&quot;glyphIndex&quot;:9,&quot;lastGlyphOfWord&quot;:true,&quot;word&quot;:1}" style="stroke: rgb(255, 255, 255); stroke-width: 1; fill-opacity: 1; stroke-opacity: 0; stroke-dasharray: 165, 205; stroke-dashoffset: 0px; transition: fill-opacity 1200ms linear, stroke-opacity 1200ms;"></path></g><g data-paper-data="{&quot;fillRule&quot;:&quot;evenodd&quot;,&quot;fillRuleOriginal&quot;:&quot;evenodd&quot;,&quot;isIcon&quot;:true,&quot;iconStyle&quot;:&quot;standalone&quot;,&quot;selectedEffects&quot;:{&quot;container&quot;:&quot;&quot;,&quot;transformation&quot;:&quot;&quot;,&quot;pattern&quot;:&quot;&quot;},&quot;bounds&quot;:{&quot;x&quot;:217.62788621227693,&quot;y&quot;:114.99999999999999,&quot;width&quot;:114.7442275754461,&quot;height&quot;:152.99677093963965},&quot;iconType&quot;:&quot;icon&quot;,&quot;rawIconId&quot;:&quot;16434&quot;,&quot;isDetailed&quot;:false,&quot;suitableAsStandaloneIcon&quot;:true}" fill-rule="evenodd" style="stroke: rgb(255, 255, 255); stroke-width: 1; fill-opacity: 1; stroke-opacity: 0; transition: fill-opacity 1200ms linear, stroke-opacity 1200ms;"><path d="M243.12448,115h63.75296c14.07744,0 25.49468,11.41724 25.49468,25.49659v102.00168c0,14.08318 -11.41724,25.4985 -25.49468,25.4985h-63.75296c-14.08509,0 -25.49659,-11.41533 -25.49659,-25.4985v-101.99976c0,-14.08126 11.4115,-25.4985 25.49659,-25.4985zM244.87627,162.05931h60.24555c7.11617,0 12.9032,-6.42005 12.9032,-14.3471c0,-7.92322 -5.78703,-14.33945 -12.9032,-14.33945h-60.24555c-7.12765,0 -12.91277,6.41623 -12.91277,14.33945c0,7.92705 5.78321,14.3471 12.91277,14.3471zM235.35043,192.31214c0,5.27641 4.29533,9.55835 9.566,9.55835c5.28406,0 9.566,-4.28386 9.566,-9.55835c0,-5.28214 -4.28194,-9.56409 -9.566,-9.56409c-5.27067,0 -9.566,4.28194 -9.566,9.56409zM265.43113,192.31214c0,5.27641 4.28386,9.55835 9.55453,9.55835c5.29744,0 9.57365,-4.28386 9.57365,-9.55835c0,-5.28214 -4.27621,-9.56409 -9.57365,-9.56409c-5.27258,0 -9.55453,4.28194 -9.55453,9.56409zM295.50226,192.31214c0,5.27641 4.29151,9.55835 9.58321,9.55835c5.27449,0 9.54496,-4.28386 9.54496,-9.55835c0,-5.28214 -4.26856,-9.56409 -9.54496,-9.56409c-5.29171,0 -9.58321,4.28194 -9.58321,9.56409zM235.35043,216.47958c0,5.28214 4.29533,9.56218 9.566,9.56218c5.28406,0 9.566,-4.28003 9.566,-9.56218c0,-5.28214 -4.28194,-9.56026 -9.566,-9.56026c-5.27067,0 -9.566,4.27812 -9.566,9.56026zM265.43113,216.47958c0,5.28214 4.28386,9.56218 9.55453,9.56218c5.29744,0 9.57365,-4.28003 9.57365,-9.56218c0,-5.28214 -4.27621,-9.56026 -9.57365,-9.56026c-5.27258,0 -9.55453,4.27812 -9.55453,9.56026zM295.50226,216.47958c0,5.28214 4.29151,9.56218 9.58321,9.56218c5.27449,0 9.54496,-4.28003 9.54496,-9.56218c0,-5.28214 -4.26856,-9.56026 -9.54496,-9.56026c-5.29171,0 -9.58321,4.27812 -9.58321,9.56026zM235.35043,240.06183c0,5.27641 4.29533,9.56026 9.566,9.56026c5.28406,0 9.566,-4.28386 9.566,-9.56026c0,-5.28214 -4.28194,-9.56218 -9.566,-9.56218c-5.27067,0 -9.566,4.28003 -9.566,9.56218zM265.43113,240.06183c0,5.27641 4.28386,9.56026 9.55453,9.56026c5.29744,0 9.57365,-4.28386 9.57365,-9.56026c0,-5.28214 -4.27621,-9.56218 -9.57365,-9.56218c-5.27258,0 -9.55453,4.28003 -9.55453,9.56218zM295.50226,240.06183c0,5.27641 4.29151,9.56026 9.58321,9.56026c5.27449,0 9.54496,-4.28386 9.54496,-9.56026c0,-5.28214 -4.26856,-9.56218 -9.54496,-9.56218c-5.29171,0 -9.58321,4.28003 -9.58321,9.56218z" data-paper-data="{&quot;isPathIcon&quot;:true}" style="stroke: rgb(255, 255, 255); stroke-width: 1; fill-opacity: 1; stroke-opacity: 0; stroke-dasharray: 1239, 1279; stroke-dashoffset: 0px; transition: fill-opacity 1200ms linear, stroke-opacity 1200ms;"></path></g></g></g></svg>